<?xml version="1.0" standalone="no"?><!DOCTYPE svg PUBLIC "-//W3C//DTD SVG 1.1//EN" "http://www.w3.org/Graphics/SVG/1.1/DTD/svg11.dtd"><svg t="1523607821008" class="icon" style="" viewBox="0 0 1024 1024" version="1.1" xmlns="http://www.w3.org/2000/svg" p-id="948" xmlns:xlink="http://www.w3.org/1999/xlink" width="200" height="200"><defs><style type="text/css"></style></defs><path d="M936.694 460.613c-12.872 0-23.307-10.435-23.307-23.307 0-12.871 10.435-23.306 23.307-23.306C949.565 414 960 424.435 960 437.306c0 12.872-10.435 23.307-23.306 23.307z m0-3.896c10.72 0 19.41-8.69 19.41-19.41s-8.69-19.411-19.41-19.411-19.41 8.69-19.41 19.41 8.69 19.41 19.41 19.41z m-7.77-9.174v-23.185h9.049c1.93 0 3.504 0.51 4.723 1.527 1.473 1.156 2.242 2.804 2.306 4.945-0.043 3.149-1.537 5.29-4.485 6.425l5.375 10.288h-4.182l-4.786-9.907h-4.485v9.907h-3.514z m3.515-20.052v7.029h5.311c1.315-0.022 2.3-0.403 2.958-1.145 0.647-0.69 0.97-1.537 0.97-2.545-0.021-1.208-0.408-2.083-1.16-2.623-0.594-0.477-1.453-0.716-2.577-0.716h-5.502z m-839.408 9.127h77.867c12.978 0 22.274 3.214 27.888 9.642 5.615 6.428 7.438 14.386 5.47 23.874-1.652 7.959-5.547 14.784-11.687 20.477-4.093 3.796-9.552 6.795-16.375 8.999 9.19 2.326 15.477 6.32 18.863 11.983 3.385 5.663 4.19 12.779 2.411 21.35-1.448 6.978-4.372 13.253-8.772 18.823s-9.753 9.978-16.058 13.223c-3.908 2.02-9.478 3.49-16.708 4.407-9.62 1.225-15.96 1.837-19.022 1.837H65.102L93.03 436.618z m31.01 52.8h18.089c6.489 0 11.235-1.118 14.239-3.352 3.004-2.235 4.944-5.464 5.82-9.688 0.813-3.917 0.178-6.978-1.905-9.182-2.083-2.204-6.277-3.306-12.583-3.306h-18.365l-5.296 25.527z m-10.974 52.89h21.211c7.162 0 12.476-1.27 15.942-3.81 3.465-2.54 5.642-5.954 6.532-10.239 0.825-3.979 0.035-7.177-2.371-9.595-2.406-2.419-7.252-3.628-14.537-3.628h-21.12l-5.657 27.272z m125.046-105.69h37.373l-5.277 25.436h-37.373l5.277-25.436z m-7.696 37.098h37.372l-20.232 97.517h-37.373l20.233-97.517z m129.105 0h34.985l-19.109 92.1-0.803 4.315c-1.27 6.122-3.78 11.953-7.532 17.493-3.751 5.54-8.14 10.024-13.167 13.452-5.027 3.428-11.02 5.907-17.98 7.438-6.96 1.53-14.724 2.295-23.294 2.295-19.59 0-32.432-2.938-38.528-8.815-6.096-5.877-8.122-13.743-6.077-23.599 0.254-1.224 0.658-2.877 1.212-4.958l35.414 4.132c0.22 3.367 1.145 5.693 2.776 6.978 2.36 1.898 5.622 2.847 9.785 2.847 5.387 0 9.71-1.439 12.97-4.316s5.633-7.897 7.12-15.059l3.066-14.784c-4.574 4.347-8.901 7.5-12.98 9.458-6.39 3.061-12.921 4.592-19.594 4.592-13.039 0-22.387-5.694-28.044-17.08-4.016-8.08-4.647-18.763-1.89-32.046 3.15-15.182 9.223-26.752 18.22-34.71 8.997-7.958 19.433-11.937 31.31-11.937 7.59 0 13.583 1.285 17.977 3.856 4.395 2.571 8.118 6.826 11.172 12.764l2.99-14.416z m-44.98 47.29c-1.461 7.039-1.044 12.258 1.25 15.655 2.295 3.398 5.891 5.096 10.789 5.096 4.652 0 8.92-1.76 12.803-5.28 3.883-3.52 6.56-8.83 8.034-15.931 1.473-7.101 0.948-12.534-1.577-16.299-2.524-3.765-6.174-5.647-10.949-5.647-4.775 0-8.944 1.73-12.509 5.188-3.564 3.459-6.178 9.198-7.841 17.217z m109.332-84.388h117.719l-5.582 26.905-91.826 78.785h78.235l-6.002 28.925H388.691l5.791-27.915 90.828-77.958h-67.4l5.964-28.742z m114.265 86.132c3.086-14.876 10.65-27.134 22.69-36.776 12.04-9.642 26.599-14.462 43.678-14.462 19.528 0 33.106 5.662 40.735 16.987 6.127 9.122 7.806 20.355 5.037 33.7-3.112 14.998-10.635 27.287-22.57 36.867-11.936 9.58-26.688 14.37-44.257 14.37-15.671 0-27.517-3.978-35.539-11.936-9.83-9.856-13.089-22.773-9.774-38.75z m37.484-0.092c-1.804 8.693-1.378 15.12 1.279 19.283 2.656 4.163 6.647 6.244 11.973 6.244 5.387 0 10.235-2.05 14.545-6.152 4.31-4.102 7.404-10.682 9.284-19.742 1.753-8.448 1.313-14.738-1.32-18.87-2.631-4.132-6.518-6.198-11.66-6.198-5.449 0-10.383 2.096-14.804 6.29-4.42 4.193-7.52 10.575-9.297 19.145z m102.713-48.942h34.801l-3.296 15.885c6.55-6.489 12.777-11.126 18.68-13.911 5.904-2.786 12.682-4.178 20.334-4.178 10.345 0 17.803 3.076 22.373 9.228 4.57 6.152 5.52 15.656 2.854 28.512l-12.86 61.981h-37.556l11.126-53.625c1.27-6.122 1.036-10.453-0.702-12.994-1.738-2.54-4.658-3.81-8.759-3.81-4.53 0-8.559 1.714-12.086 5.142-3.527 3.428-6.211 9.58-8.053 18.457l-9.716 46.83h-37.373l20.233-97.517z m221.652 58.033H825.06c-0.572 5.999 0.123 10.467 2.085 13.406 2.735 4.224 7.01 6.336 12.826 6.336 3.673 0 7.353-0.919 11.04-2.755 2.261-1.163 4.86-3.214 7.796-6.152l36.116 3.397c-7.664 9.795-15.916 16.82-24.757 21.074-8.84 4.255-20.699 6.382-35.574 6.382-12.917 0-22.701-1.821-29.353-5.464-6.651-3.642-11.588-9.427-14.81-17.355-3.222-7.927-3.721-17.247-1.499-27.96 3.163-15.243 10.604-27.578 22.324-37.005 11.72-9.428 26.18-14.141 43.383-14.141 13.957 0 24.538 2.112 31.742 6.336 7.204 4.224 12.086 10.345 14.646 18.364 2.56 8.02 2.507 18.457-0.16 31.313l-0.877 4.224z m-34.3-17.906c0.764-7.224-0.106-12.397-2.611-15.519-2.505-3.122-6.329-4.683-11.47-4.683-5.939 0-11.172 2.357-15.7 7.07-2.875 2.94-5.222 7.316-7.04 13.132h36.821z" p-id="949" fill="#ffffff"></path></svg>